<svg width="52" height="48" viewBox="0 0 52 48" fill="#f7f7f7" xmlns="http://www.w3.org/2000/svg">
<g id="healthicons:clinical-fe-outline">
<g id="Group">
<path id="Vector" d="M12.3132 29.4213C12.3132 29.1612 12.4262 28.9118 12.6274 28.7279C12.8285 28.5439 13.1014 28.4406 13.3858 28.4406H28.4025C28.687 28.4406 28.9598 28.5439 29.1609 28.7279C29.3621 28.9118 29.4751 29.1612 29.4751 29.4213C29.4751 29.6814 29.3621 29.9309 29.1609 30.1148C28.9598 30.2987 28.687 30.402 28.4025 30.402H13.3858C13.1014 30.402 12.8285 30.2987 12.6274 30.1148C12.4262 29.9309 12.3132 29.6814 12.3132 29.4213ZM13.3858 33.3442C13.1014 33.3442 12.8285 33.4475 12.6274 33.6314C12.4262 33.8153 12.3132 34.0648 12.3132 34.3249C12.3132 34.585 12.4262 34.8344 12.6274 35.0183C12.8285 35.2023 13.1014 35.3056 13.3858 35.3056H28.4025C28.687 35.3056 28.9598 35.2023 29.1609 35.0183C29.3621 34.8344 29.4751 34.585 29.4751 34.3249C29.4751 34.0648 29.3621 33.8153 29.1609 33.6314C28.9598 33.4475 28.687 33.3442 28.4025 33.3442H13.3858ZM15.5311 20.5949V17.6528H17.6763V20.5949H20.8942V22.5564H17.6763V25.4985H15.5311V22.5564H12.3132V20.5949H15.5311Z" fill="#f7f7f7"/>
<path id="Vector_2" fill-rule="evenodd" clip-rule="evenodd" d="M16.6037 5.88428C15.7503 5.88428 14.9318 6.19425 14.3284 6.74601C13.7249 7.29776 13.3859 8.04611 13.3859 8.82641H10.168C9.31462 8.82641 8.49615 9.13638 7.89268 9.68814C7.28922 10.2399 6.9502 10.9882 6.9502 11.7685V38.2477C6.9502 39.028 7.28922 39.7763 7.89268 40.3281C8.49615 40.8799 9.31462 41.1898 10.168 41.1898H31.6204C32.4738 41.1898 33.2923 40.8799 33.8958 40.3281C34.4992 39.7763 34.8382 39.028 34.8382 38.2477V11.7685C34.8382 10.9882 34.4992 10.2399 33.8958 9.68814C33.2923 9.13638 32.4738 8.82641 31.6204 8.82641H28.4025C28.4025 8.04611 28.0635 7.29776 27.4601 6.74601C26.8566 6.19425 26.0381 5.88428 25.1847 5.88428H16.6037ZM25.1847 11.7685C25.4692 11.7685 25.742 11.6652 25.9431 11.4813C26.1443 11.2974 26.2573 11.0479 26.2573 10.7878V8.82641C26.2573 8.56631 26.1443 8.31686 25.9431 8.13294C25.742 7.94902 25.4692 7.8457 25.1847 7.8457H16.6037C16.3193 7.8457 16.0464 7.94902 15.8453 8.13294C15.6441 8.31686 15.5311 8.56631 15.5311 8.82641V10.7878C15.5311 11.0479 15.6441 11.2974 15.8453 11.4813C16.0464 11.6652 16.3193 11.7685 16.6037 11.7685H25.1847ZM13.3859 10.7878C13.3859 11.5681 13.7249 12.3165 14.3284 12.8682C14.9318 13.42 15.7503 13.73 16.6037 13.73H25.1847C26.0381 13.73 26.8566 13.42 27.4601 12.8682C28.0635 12.3165 28.4025 11.5681 28.4025 10.7878H31.6204C31.9049 10.7878 32.1777 10.8912 32.3788 11.0751C32.58 11.259 32.693 11.5084 32.693 11.7685V38.2477C32.693 38.5078 32.58 38.7573 32.3788 38.9412C32.1777 39.1251 31.9049 39.2284 31.6204 39.2284H10.168C9.88357 39.2284 9.61075 39.1251 9.40959 38.9412C9.20844 38.7573 9.09543 38.5078 9.09543 38.2477V11.7685C9.09543 11.5084 9.20844 11.259 9.40959 11.0751C9.61075 10.8912 9.88357 10.7878 10.168 10.7878H13.3859ZM39.1287 16.6721C39.1287 15.8918 39.4677 15.1434 40.0712 14.5917C40.6747 14.0399 41.4931 13.73 42.3466 13.73C43.2 13.73 44.0185 14.0399 44.6219 14.5917C45.2254 15.1434 45.5644 15.8918 45.5644 16.6721V36.5834L42.3466 40.9966L39.1287 36.5834V16.6721ZM42.3466 15.6914C42.0621 15.6914 41.7893 15.7947 41.5881 15.9786C41.3869 16.1625 41.2739 16.412 41.2739 16.6721V18.6335H43.4192V16.6721C43.4192 16.412 43.3062 16.1625 43.105 15.9786C42.9039 15.7947 42.631 15.6914 42.3466 15.6914ZM42.3466 37.4602L43.4192 35.9891V20.5949H41.2739V35.9891L42.3466 37.4602Z" fill="#f7f7f7"/>
</g>
</g>
</svg>
